<?xml version="1.0" encoding="UTF-8" standalone="no"?>
<!DOCTYPE svg PUBLIC "-//W3C//DTD SVG 1.1//EN" "http://www.w3.org/Graphics/SVG/1.1/DTD/svg11.dtd">
<svg width="100%" height="100%" viewBox="0 0 403 507" version="1.1" xmlns="http://www.w3.org/2000/svg" xmlns:xlink="http://www.w3.org/1999/xlink" xml:space="preserve" xmlns:serif="http://www.serif.com/" style="fill-rule:evenodd;clip-rule:evenodd;stroke-linejoin:round;stroke-miterlimit:2;">
    <g transform="matrix(1,0,0,1,-79.072463,-28.209287)">
        <g id="Background">
            <path d="M406.051,351.494C406.83,362.13 411.065,360.755 419.522,385.492C433.812,427.291 432.679,447.389 414.589,487.541C410.461,496.704 387.119,535.583 379.496,534.538C361.413,532.057 329.11,506.982 325.169,503.923C301.234,485.344 257.032,434.424 182.111,360.899C173.098,352.054 172.987,349.922 173.93,323.513C174.259,314.279 167.924,317.34 155.533,318.755C146.346,319.805 78.359,329.238 79.078,304.483C79.642,285.049 161.257,216.955 264.425,185.268C332.601,164.328 365.044,163.365 423.489,164.867C425.266,164.913 457.866,166.586 469.679,172.1C501.574,186.989 461.748,212.025 438.333,226.224C428.858,231.969 428.717,231.601 398.303,247.098C390.814,250.915 398.622,252.568 408.865,269.278C427.86,300.264 426.9,311.755 407.588,319.715C404.709,320.901 401.35,320.945 404.998,327.211C411.86,338.997 406.888,339.836 406.051,351.494Z"/>
            <path d="M172.953,126.532C173.386,120.52 173.707,120.586 173.388,114.508C173.115,109.285 164.443,113.458 135.587,120.841C108.192,127.849 94.098,133.275 93.774,121.489C93.709,119.125 93.594,114.936 112.887,98.941C177.207,45.616 185.346,31.074 208.484,28.325C218.76,27.104 234.539,35.792 242.83,44.171C255.979,57.458 337.065,140.02 347.149,150.811C351.376,155.334 345.671,155.094 344.465,155.263C336.316,156.408 289.323,163.011 244.483,179.457C197.883,196.548 186.421,204.323 169.697,212.888C164.162,215.722 165.254,211.116 165.409,208.494C166.57,188.922 167.623,189.087 172.953,126.532Z"/>
            <path d="M257.5,290.96C249.795,291.172 250.841,288.112 251.226,280.485C252.264,259.917 263.125,240.856 283.645,230.795C288.105,228.609 287.441,225.882 359.468,212.321C373.025,209.768 372.866,214.294 375.129,218.691C382.67,233.349 381.791,234.191 377.691,245.568C373.733,256.554 386.602,261.527 401.772,288.356C410.829,304.373 402.617,304.257 400.507,304.56C389.833,306.096 377.888,298.387 364.913,313.847C341.015,342.321 329.987,339.76 330.63,372.498C330.876,385.049 332.558,389.212 322.496,389.227C300.554,389.259 300.094,388.684 298.911,387.205C298.275,386.41 292.819,348.258 308.68,327.632C326.58,304.355 346.67,297.063 340.055,271.625C334.423,249.967 290.971,247.099 286.277,281.466C286.091,282.827 286.49,289.984 282.516,290.599C279.751,291.027 277.941,290.948 257.5,290.96Z" style="fill:rgb(252,252,252);"/>
            <path d="M357.973,401.449C365.307,438.613 383.158,493.947 375.836,489.086C373.447,487.5 370.819,470.556 346.817,402.39C344.098,394.671 346.196,390.211 354.798,357.581C356.99,349.268 355.576,346.285 382.312,335.035C396.839,328.923 386.639,343.035 388.409,350.52C392.307,367.009 412.056,402.774 409.793,409.592C405.438,422.714 391.039,452.228 382.575,477.532C380.103,484.923 380.094,476.672 380.128,476.461C382.471,461.938 394.033,410.983 392.767,403.461C388.216,376.413 385.288,373.469 383.413,371.585C381.705,369.868 366.447,356.711 364.516,356.967C362.887,357.183 362.106,359.468 358.25,388.464C357.381,394.994 357.363,394.953 357.973,401.449Z" style="fill:rgb(249,249,249);"/>
            <path d="M333.894,424.5C332.236,449.01 292.433,447.118 295.897,419.574C298.601,398.071 332.503,396.613 333.894,424.5Z" style="fill:rgb(252,252,252);"/>
        </g>
    </g>
</svg>
